#!OML:ASF G:\JayActor3\Patient Classification 1\Patient 1\Session 6\male.ASF
:FULLY-SPECIFIED
:DEGREES
660
root 21.2004 15.9294 -7.63771 202.142 -45.9022 -185.327
lowerback 27.8576 -2.27666 -3.11113
upperback 2.82023 -4.71019 -2.38183
thorax -12.2733 -2.26132 0.877432
lowerneck -8.85372 1.63239 3.1661
upperneck 3.50116 1.53479 3.19905
head 2.65856 0.885862 0.556148
rclavicle -9.30312e-014 2.70347e-014
rhumerus -42.1381 28.4996 -98.9787
rradius 42.0172
rwrist -6.75011
rhand -20.418 -6.62659
rfingers 7.12502
rthumb 5.93627 -36.5234
lclavicle -9.30312e-014 2.70347e-014
lhumerus -47.5062 -31.2123 97.7866
lradius 35.82
lwrist 26.9028
lhand -14.4173 4.32363
lfingers 7.12502
lthumb 11.7268 33.9754
rfemur -66.6462 6.42673 14.8927
rtibia 56.0959
rfoot -26.066 -14.5828
rtoes -16.6094
lfemur -8.09361 1.61521 -26.9144
ltibia 13.9837
lfoot -22.119 9.78022
ltoes -10.525
661
root 21.0889 15.9235 -7.74055 201.952 -45.638 -185.026
lowerback 27.7593 -2.26445 -2.92318
upperback 2.72481 -4.63071 -2.40659
thorax -12.3515 -2.22942 0.709773
lowerneck -8.86062 1.67838 3.20243
upperneck 3.70374 1.59309 3.10919
head 2.72961 0.918142 0.525923
rclavicle -5.00937e-014 7.87187e-014
rhumerus -42.1088 29.0056 -99.5599
rradius 40.9986
rwrist -6.30659
rhand -19.5324 -6.74846
rfingers 7.12502
rthumb 6.79121 -36.6195
lclavicle -5.00937e-014 7.87187e-014
lhumerus -47.4892 -31.0123 97.7481
lradius 35.7158
lwrist 26.7003
lhand -14.1035 4.35364
lfingers 7.12502
lthumb 12.0294 33.9879
rfemur -65.8813 6.9606 14.626
rtibia 54.1502
rfoot -25.9867 -14.4284
rtoes -16.5508
lfemur -6.57089 1.99333 -26.7555
ltibia 12.1962
lfoot -21.5885 9.5978
ltoes -10.7894
662
root 20.9754 15.9165 -7.84666 201.766 -45.3932 -184.719
lowerback 27.6332 -2.24269 -2.72024
upperback 2.63997 -4.53019 -2.41359
thorax -12.4016 -2.18931 0.544232
lowerneck -8.72862 1.71775 3.23401
upperneck 3.86409 1.65215 3.01627
head 2.76025 0.948618 0.493615
rclavicle 1.19271e-014 2.06736e-014
rhumerus -42.0818 29.3383 -99.9939
rradius 40.2294
rwrist -5.87544
rhand -18.485 -6.93215
rfingers 7.12502
rthumb 7.80228 -36.7682
lclavicle 1.19271e-014 2.06736e-014
lhumerus -47.4308 -30.7446 97.634
lradius 35.7462
lwrist 26.7175
lhand -14.2135 4.39452
lfingers 7.12502
lthumb 11.9233 34.035
rfemur -65.1225 7.45544 14.4226
rtibia 52.3703
rfoot -25.8464 -14.256
rtoes -16.5556
lfemur -4.92544 2.36949 -26.5726
ltibia 10.1916
lfoot -20.933 9.3542
ltoes -11.1393
663
root 20.8608 15.9083 -7.95606 201.59 -45.1733 -184.409
lowerback 27.4765 -2.21084 -2.51091
upperback 2.56816 -4.41007 -2.3987
thorax -12.4181 -2.14105 0.39098
lowerneck -8.47126 1.73705 3.26363
upperneck 3.98872 1.69303 2.91551
head 2.75514 0.968126 0.456437
rclavicle -1.14898e-013 -2.62396e-014
rhumerus -42.0671 29.4953 -100.273
rradius 39.7357
rwrist -5.49465
rhand -17.4137 -7.16492
rfingers 7.12502
rthumb 8.83613 -36.9599
lclavicle -1.14898e-013 -2.62396e-014
lhumerus -47.3405 -30.43 97.4669
lradius 35.9109
lwrist 26.931
lhand -14.7259 4.44943
lfingers 7.12502
lthumb 11.4291 34.1179
rfemur -64.3746 7.90078 14.2953
rtibia 50.7831
rfoot -25.6829 -14.0603
rtoes -16.541
lfemur -3.11717 2.69496 -26.3644
ltibia 7.88889
lfoot -20.091 9.09129
ltoes -11.5756
664
root 20.7457 15.8992 -8.06867 201.432 -44.9883 -184.108
lowerback 27.2929 -2.17011 -2.30538
upperback 2.51353 -4.27541 -2.35994
thorax -12.397 -2.08637 0.260256
lowerneck -8.08917 1.73091 3.28734
upperneck 4.06945 1.70854 2.81178
head 2.71156 0.973033 0.416312
rclavicle 1.51076e-014 2.8625e-014
rhumerus -42.0615 29.491 -100.398
rradius 39.5171
rwrist -5.19793
rhand -16.445 -7.42304
rfingers 7.12502
rthumb 9.77082 -37.1764
lclavicle 1.51076e-014 2.8625e-014
lhumerus -47.2265 -30.0944 97.2622
lradius 36.209
lwrist 27.2729
lhand -15.5394 4.50493
lfingers 7.12502
lthumb 10.6445 34.2153
rfemur -63.6365 8.28363 14.2509
rtibia 49.407
rfoot -25.5225 -13.8721
rtoes -16.4763
lfemur -1.02624 2.98198 -26.1402
ltibia 5.06444
lfoot -18.9467 8.78309
ltoes -12.1263
665
root 20.6308 15.8899 -8.18419 201.292 -44.8493 -183.818
lowerback 27.09 -2.12554 -2.10349
upperback 2.48207 -4.13354 -2.29671
thorax -12.3353 -2.02867 0.155848
lowerneck -7.58776 1.70048 3.30205
upperneck 4.09378 1.69967 2.71164
head 2.62644 0.963759 0.37611
rclavicle 5.08889e-014 -3.73715e-014
rhumerus -42.0558 29.358 -100.378
rradius 39.5545
rwrist -4.99859
rhand -15.6777 -7.66426
rfingers 7.12502
rthumb 10.5111 -37.3815
lclavicle 5.08889e-014 -3.73715e-014
lhumerus -47.0753 -29.7329 97.0089
lradius 36.6311
lwrist 27.655
lhand -16.5487 4.54861
lfingers 7.12502
lthumb 9.67079 34.3066
rfemur -62.9014 8.59465 14.2966
rtibia 48.2535
rfoot -25.393 -13.7183
rtoes -16.407
lfemur 2.28037 3.21591 -25.9045
ltibia 2.8625e-014
lfoot -16.7026 8.32635
ltoes -12.7751
666
root 20.5167 15.8809 -8.30231 201.166 -44.761 -183.528
lowerback 26.8697 -2.07673 -1.89677
upperback 2.47865 -3.98256 -2.2115
thorax -12.2293 -1.96767 0.0695074
lowerneck -6.97698 1.64558 3.32275
upperneck 4.04882 1.66435 2.61043
head 2.49801 0.939179 0.332032
rclavicle 3.22031e-014 -5.24792e-014
rhumerus -42.0254 29.1102 -100.223
rradius 39.8087
rwrist -4.8842
rhand -15.1788 -7.86386
rfingers 7.12502
rthumb 10.9923 -37.5561
lclavicle 3.22031e-014 -5.24792e-014
lhumerus -46.8854 -29.3702 96.7105
lradius 37.1722
lwrist 28.0107
lhand -17.6479 4.58604
lfingers 7.12502
lthumb 8.61011 34.3905
rfemur -62.1686 8.83719 14.4406
rtibia 47.3237
rfoot -25.3086 -13.6113
rtoes -16.311
lfemur 2.82609 3.40555 -25.6422
ltibia -6.36111e-015
lfoot -16.6721 8.20965
ltoes -13.5384
667
root 20.4039 15.8723 -8.42236 201.07 -44.718 -183.256
lowerback 26.6344 -2.0297 -1.70288
upperback 2.50217 -3.83613 -2.10407
thorax -12.0808 -1.90846 0.0168109
lowerneck -6.22378 1.5795 3.32986
upperneck 3.89266 1.62477 2.51074
head 2.3069 0.909198 0.289069
rclavicle -6.24184e-014 1.82882e-014
rhumerus -41.9614 28.7953 -99.9444
rradius 40.242
rwrist -4.82021
rhand -14.9651 -8.01462
rfingers 7.12502
rthumb 11.1985 -37.6958
lclavicle -6.24184e-014 1.82882e-014
lhumerus -46.6477 -28.9719 96.3575
lradius 37.8246
lwrist 28.2702
lhand -18.7204 4.63298
lfingers 7.12502
lthumb 7.57507 34.4773
rfemur -61.4414 9.00524 14.6674
rtibia 46.611
rfoot -25.2786 -13.5443
rtoes -16.079
lfemur 3.35417 3.5459 -25.3797
ltibia -2.54444e-014
lfoot -16.5162 8.11124
ltoes -14.3843
668
root 20.2927 15.8646 -8.54367 201.015 -44.7199 -183.001
lowerback 26.3861 -1.98792 -1.51694
upperback 2.55419 -3.69848 -1.97804
thorax -11.8903 -1.85337 -0.00761696
lowerneck -5.31202 1.5105 3.31303
upperneck 3.57802 1.59349 2.42497
head 2.03632 0.879356 0.253347
rclavicle 3.06128e-014 -5.56597e-015
rhumerus -41.84 28.4184 -99.5455
rradius 40.8171
rwrist -4.74786
rhand -14.999 -8.11159
rfingers 7.12502
rthumb 11.1658 -37.7945
lclavicle 3.06128e-014 -5.56597e-015
lhumerus -46.356 -28.5473 95.9487
lradius 38.5856
lwrist 28.4115
lhand -19.6903 4.71105
lfingers 7.12502
lthumb 6.63883 34.587
rfemur -60.7218 9.09697 14.9721
rtibia 46.0916
rfoot -25.2895 -13.519
rtoes -15.7542
lfemur 3.84961 3.63684 -25.1261
ltibia -2.54444e-014
lfoot -16.1898 8.05979
ltoes -15.3782
669
root 20.1836 15.8588 -8.66578 200.993 -44.7683 -182.75
lowerback 26.1337 -1.95614 -1.32448
upperback 2.63565 -3.5729 -1.8359
thorax -11.6629 -1.80464 -0.0135507
lowerneck -4.2357 1.44012 3.2775
upperneck 3.06697 1.57325 2.34405
head 1.6764 0.850454 0.221235
rclavicle 2.5842e-014 -4.53229e-014
rhumerus -41.6422 27.9792 -99.0321
rradius 41.502
rwrist -4.61592
rhand -15.2171 -8.14815
rfingers 7.12502
rthumb 10.9553 -37.8423
lclavicle 2.5842e-014 -4.53229e-014
lhumerus -46.0084 -28.1083 95.4822
lradius 39.4597
lwrist 28.4521
lhand -20.5121 4.84503
lfingers 7.12502
lthumb 5.84537 34.7444
rfemur -60.0094 9.12476 15.347
rtibia 45.7262
rfoot -25.3257 -13.5441
rtoes -15.3589
lfemur 2.91428 3.68878 -24.8746
ltibia 2.55488
lfoot -16.8161 8.21719
ltoes -16.5049
